<svg width="512" height="512" viewBox="0 0 512 512" fill="none" xmlns="http://www.w3.org/2000/svg">
<path d="M403.562 58.5C404.482 58.4845 405.402 58.4691 406.35 58.4531C412.217 58.4869 415.497 59.1852 420 63C421.798 64.8647 422.821 66.3493 423.51 68.8533C424.681 73.091 424.681 73.091 427.646 76.1655C429.678 77.0293 431.691 77.699 433.812 78.3125C435.216 78.7639 436.618 79.2183 438.02 79.6758C438.695 79.8857 439.37 80.0955 440.066 80.3118C442 81 442 81 445.309 82.7812C446.197 83.1834 447.085 83.5856 448 84C449.699 83.0525 451.394 82.0925 453.02 81.0234C456.915 79.0105 460.785 79.0293 465 80C468.157 81.8898 470.486 84.3356 473 87C473.812 87.7799 474.624 88.5598 475.461 89.3633C482.732 96.3702 482.732 96.3702 483.312 102.062C483.002 105.978 482.382 107.207 480.562 110.5C478.857 114.34 478.888 115.667 480.258 119.73C481.469 122.351 482.834 124.862 484.23 127.387C486.142 130.928 486.657 134.007 487 138C487.87 138.13 487.87 138.13 488.758 138.262C494.589 139.311 497.801 140.801 502 145C504.104 149.207 503.274 154.69 503.312 159.312C503.342 160.454 503.371 161.595 503.4 162.771C503.464 171.14 503.464 171.14 501.301 175.148C498.871 177.104 496.803 178.251 493.875 179.312C493.006 179.639 492.137 179.965 491.242 180.301C489 181 489 181 487 181C486.691 182.794 486.691 182.794 486.375 184.625C485.577 188.456 484.239 191.68 482.509 195.185C479.653 200.681 479.653 200.681 479.5 206.652C480.588 208.94 480.588 208.94 481.883 211.047C483.652 214.14 483.522 216.542 483 220C480.356 224.462 477.18 228.13 473.5 231.75C473.027 232.231 472.554 232.712 472.066 233.207C468.471 236.783 465.92 238.77 460.875 239.375C456.453 238.947 453.152 237.603 449.137 235.777C448.432 235.521 447.726 235.264 447 235C446.34 235.33 445.68 235.66 445 236C444.67 284.84 444.34 333.68 444 384C452.91 384 461.82 384 471 384C482.242 388.996 482.242 388.996 485.578 396.594C487.257 401.185 487.461 405.397 487.375 410.25C487.365 411.082 487.355 411.914 487.344 412.771C487.03 425.317 483.908 434.334 475.562 443.75C468.042 450.354 461.89 453.246 451.56 453.257C450.841 453.261 450.122 453.264 449.381 453.268C446.976 453.277 444.572 453.272 442.167 453.267C440.423 453.271 438.679 453.276 436.936 453.281C432.148 453.293 427.36 453.293 422.572 453.291C417.407 453.29 412.242 453.301 407.077 453.311C396.959 453.327 386.842 453.333 376.724 453.334C368.5 453.335 360.276 453.339 352.052 453.346C328.736 453.363 305.421 453.372 282.105 453.371C280.22 453.371 280.22 453.371 278.296 453.371C276.408 453.37 276.408 453.37 274.483 453.37C254.085 453.37 233.687 453.389 213.289 453.417C192.345 453.446 171.401 453.459 150.457 453.458C138.698 453.457 126.94 453.463 115.181 453.484C105.17 453.502 95.1595 453.507 85.1486 453.493C80.0415 453.487 74.9347 453.486 69.8276 453.504C65.15 453.519 60.4728 453.517 55.7952 453.499C54.1054 453.496 52.4157 453.5 50.726 453.511C38.7006 453.585 28.932 452.603 19.8164 443.984C10.5524 433.864 8.4859 424.286 8.5625 410.875C8.54252 409.626 8.52254 408.377 8.50195 407.09C8.50797 395.81 8.50797 395.81 13 391C18.6516 385.594 23.4981 383.728 31.2734 383.805C32.4271 383.811 33.5809 383.818 34.7695 383.824C35.9593 383.841 37.1491 383.858 38.375 383.875C39.588 383.884 40.801 383.893 42.0508 383.902C45.0341 383.926 48.0169 383.959 51 384C50.9982 382.813 50.9963 381.625 50.9944 380.402C50.9511 352.199 50.9181 323.996 50.8979 295.793C50.8954 292.32 50.8928 288.847 50.8901 285.373C50.8896 284.682 50.8891 283.99 50.8885 283.278C50.8799 272.09 50.8641 260.903 50.8457 249.716C50.827 238.231 50.816 226.747 50.8118 215.262C50.8092 208.814 50.8031 202.366 50.7885 195.917C50.775 189.846 50.7708 183.774 50.7738 177.703C50.7732 175.477 50.7693 173.25 50.7616 171.024C50.7516 167.979 50.754 164.935 50.7595 161.89C50.7537 161.013 50.7479 160.137 50.7419 159.234C50.7955 148.109 53.4915 138.089 61.1133 129.664C71.7914 119.742 83.1677 117.691 97.4341 117.722C98.4236 117.716 99.413 117.71 100.432 117.704C103.715 117.687 106.997 117.684 110.28 117.681C112.646 117.672 115.012 117.662 117.378 117.651C123.778 117.623 130.178 117.608 136.578 117.595C142.596 117.581 148.614 117.558 154.632 117.535C166.544 117.49 178.457 117.453 190.369 117.422C201.934 117.392 213.5 117.357 225.065 117.317C225.779 117.315 226.493 117.312 227.229 117.31C230.811 117.298 234.393 117.285 237.975 117.273C267.65 117.169 297.325 117.08 327 117C326.428 113.227 325.714 110.386 324 107C323.321 102.66 323.507 99.0538 325.375 95.0625C336.576 80.7594 336.576 80.7594 344.148 79.6992C349.349 79.6718 352.319 80.6076 357 83C362.239 83 366.694 80.4096 371.316 78.1641C374 77 374 77 377.875 76.4375C381.899 74.5865 381.978 73.1862 383.5 69.125C383.82 68.0757 384.139 67.0264 384.469 65.9453C388.464 58.2601 395.847 58.3697 403.562 58.5ZM398 74C397.162 75.9565 396.33 77.9153 395.5 79.875C395.036 80.9655 394.572 82.0561 394.094 83.1797C392.879 85.8066 392.879 85.8066 393 88C392.247 88.1238 391.494 88.2475 390.719 88.375C382.905 89.8921 376.588 92.3816 369.646 96.2188C365.433 98.4992 361.89 99.8023 357 100C354.707 99.1875 354.707 99.1875 352.812 98C350.077 96.2748 350.077 96.2748 346.938 96.2344C343.782 97.4813 342.087 99.3763 340 102C340 105.271 341.016 107.028 342.625 109.875C344.383 113.87 343.93 115.754 343 120C341.878 122.638 340.513 125.119 339.125 127.625C336.31 132.864 334.514 137.37 333.562 143.312C332.563 148.606 332.563 148.606 330.004 150.398C327.66 151.176 325.432 151.592 323 152C320.525 152.99 320.525 152.99 318 154C318 157.63 318 161.26 318 165C318.831 165.219 319.663 165.438 320.52 165.664C322.15 166.14 322.15 166.14 323.812 166.625C324.891 166.927 325.97 167.228 327.082 167.539C331.836 169.919 332.543 173.648 334.176 178.48C334.551 179.704 334.926 180.927 335.312 182.188C336.872 187.163 338.688 191.493 341.375 196C343.303 199.364 343.991 200.729 344.125 204.688C342.757 208.717 341.034 212.261 339 216C341.31 218.31 343.62 220.62 346 223C350.093 221.729 350.093 221.729 353.938 219.875C357.507 218.361 361.205 218.335 364.86 219.689C366.817 220.654 368.722 221.683 370.625 222.75C375.79 225.537 380.498 227.555 386.25 228.938C391.527 230.399 391.527 230.399 393.621 233.062C394.655 235.366 395.355 237.562 396 240C396.99 242.475 396.99 242.475 398 245C401.63 245 405.26 245 409 245C409.346 243.753 409.346 243.753 409.699 242.48C410.025 241.394 410.351 240.307 410.688 239.188C411.001 238.109 411.314 237.03 411.637 235.918C413.296 232.367 414.458 231.591 418 230C420.359 229.18 422.736 228.413 425.125 227.688C431.071 225.827 436.23 223.464 441.535 220.137C444.595 218.726 446.662 218.66 450 219C452.177 219.937 454.054 221.081 456.07 222.32C458.022 223.233 458.022 223.233 460.07 222.281C462.733 220.513 464.808 218.313 467 216C465.713 211.884 465.713 211.884 463.875 208C462.617 205.125 462.729 203.139 463 200C464.166 197.371 465.365 194.942 466.75 192.438C470.059 186.224 472.305 180.451 473.918 173.574C475.322 170.234 476.755 169.509 480 168C482.965 166.854 485.963 165.952 489 165C489 161.37 489 157.74 489 154C488.096 153.732 487.193 153.464 486.262 153.188C476.875 150.069 476.875 150.069 474.645 147.344C473.912 145.249 473.467 143.17 473 141C472.242 138.842 471.447 136.697 470.625 134.562C470.201 133.447 469.777 132.332 469.34 131.184C468.136 128.323 466.788 125.777 465.188 123.125C462.941 119.229 462.24 116.56 463 112C463.945 110.152 463.945 110.152 465.062 108.312C467.219 105.348 467.219 105.348 466.844 102.996C465.796 100.518 464.529 99.4229 462.438 97.75C461.797 97.2292 461.156 96.7084 460.496 96.1719C459.756 95.5918 459.756 95.5918 459 95C458.348 95.3725 457.695 95.7451 457.023 96.1289C456.149 96.602 455.275 97.0751 454.375 97.5625C453.516 98.0382 452.658 98.5138 451.773 99.0039C447.217 100.64 444.168 99.5439 439.879 97.5469C438.784 96.9539 437.69 96.3609 436.562 95.75C432.068 93.3288 427.867 91.6147 422.914 90.3806C417.884 89.0938 414.82 88.2775 411.945 83.8008C410.699 80.5446 409.723 77.4077 409 74C405.37 74 401.74 74 398 74ZM73.6875 139.062C73.0726 139.569 72.4577 140.076 71.8242 140.598C66.7213 147.318 65.4086 154.734 65.519 162.972C65.5156 163.922 65.5121 164.871 65.5086 165.85C65.502 169.014 65.524 172.177 65.5459 175.34C65.5471 177.654 65.5466 179.968 65.5444 182.283C65.5435 188.462 65.5667 194.642 65.5949 200.822C65.6177 206.627 65.6187 212.433 65.6216 218.238C65.6425 235.2 65.6984 252.163 65.75 269.125C65.8325 307.034 65.915 344.943 66 384C185.79 384 305.58 384 429 384C429 337.14 429 290.28 429 242C427.68 242.33 426.36 242.66 425 243C423.557 245.668 423.557 245.668 422.5 248.875C420.953 253.213 419.999 255.628 416 258C411.877 258.624 407.727 258.463 403.562 258.438C402.43 258.457 401.298 258.477 400.131 258.498C391.934 258.493 391.934 258.493 387.805 256.312C385.753 253.683 385.216 251.812 384.562 248.562C383.285 244.61 382.616 243.337 378.918 241.312C376.463 240.476 373.984 239.705 371.488 239C368.451 238.129 366.145 237.137 363.438 235.562C360.194 233.667 360.194 233.667 357.312 234.625C356.168 235.306 356.168 235.306 355 236C350.835 237.973 347.615 238.412 343 238C338.462 235.777 335.236 232.505 331.75 228.938C331.209 228.395 330.667 227.853 330.109 227.295C325.341 222.473 324.733 220.147 324.762 213.535C325.072 210.239 326.453 207.893 328 205C327.538 200.587 325.781 196.58 324.125 192.5C323.74 191.524 323.74 191.524 323.348 190.527C320.883 183.547 320.883 183.547 315.66 178.848C313.931 178.325 312.202 177.804 310.473 177.285C306.884 175.42 305.767 173.642 304 170C303.465 166.483 303.486 163.051 303.562 159.5C303.555 158.576 303.548 157.651 303.541 156.699C303.589 151.488 303.796 147.332 307 143C309.848 141.496 309.848 141.496 313.062 140.438C316.261 139.467 316.261 139.467 319 138C320.191 135.474 320.191 135.474 321 133C291.343 132.932 261.686 132.878 232.029 132.847C228.526 132.843 225.022 132.839 221.519 132.835C220.821 132.834 220.124 132.834 219.405 132.833C208.121 132.82 196.836 132.796 185.552 132.769C173.968 132.74 162.384 132.724 150.801 132.718C144.296 132.714 137.792 132.705 131.287 132.683C125.164 132.662 119.04 132.656 112.916 132.661C110.67 132.66 108.424 132.654 106.179 132.642C103.108 132.627 100.037 132.631 96.9658 132.639C96.0816 132.63 95.1973 132.622 94.2863 132.613C86.8647 132.666 79.4385 134.05 73.6875 139.062ZM24 401C21.5663 408.301 22.2853 417.804 25 425C28.1389 431.197 31.5269 435.164 38 438C41.5841 438.591 41.5841 438.591 45.3855 438.503C46.4556 438.512 46.4556 438.512 47.5473 438.521C49.9324 438.536 52.3165 438.522 54.7015 438.508C56.4309 438.513 58.1602 438.519 59.8896 438.527C64.6376 438.544 69.3853 438.535 74.1334 438.523C79.2555 438.514 84.3775 438.528 89.4996 438.539C99.5321 438.557 109.565 438.553 119.597 438.541C127.75 438.532 135.903 438.531 144.056 438.535C145.796 438.536 145.796 438.536 147.571 438.537C149.927 438.538 152.283 438.54 154.639 438.541C176.739 438.552 198.839 438.539 220.939 438.518C239.906 438.5 258.873 438.503 277.84 438.521C299.861 438.543 321.881 438.551 343.901 438.539C346.249 438.538 348.597 438.536 350.944 438.535C352.099 438.535 353.254 438.534 354.445 438.533C362.589 438.53 370.733 438.536 378.877 438.545C388.8 438.556 398.724 438.553 408.647 438.532C413.711 438.522 418.775 438.517 423.839 438.531C428.474 438.543 433.109 438.536 437.744 438.515C439.421 438.51 441.099 438.513 442.776 438.522C445.056 438.534 447.335 438.522 449.615 438.503C450.881 438.503 452.147 438.502 453.452 438.501C458.797 437.746 462.499 435.585 466.25 431.625C470.864 424.704 472.201 419.211 472.312 411C472.356 409.933 472.356 409.933 472.4 408.844C472.44 405.594 472.342 403.481 470.434 400.797C467.203 398.412 464.493 398.447 460.629 398.502C459.881 398.497 459.132 398.492 458.361 398.486C455.84 398.474 453.319 398.49 450.797 398.506C448.977 398.502 447.156 398.497 445.336 398.491C440.323 398.478 435.31 398.49 430.296 398.506C424.894 398.52 419.492 398.51 414.09 398.503C403.503 398.493 392.916 398.504 382.328 398.522C370.009 398.543 357.69 398.543 345.371 398.542C323.396 398.541 301.422 398.559 279.448 398.588C258.106 398.617 236.764 398.631 215.422 398.629C214.108 398.629 212.793 398.629 211.439 398.629C210.127 398.629 208.814 398.629 207.462 398.629C183.192 398.628 158.922 398.639 134.652 398.657C126.057 398.663 117.462 398.665 108.866 398.666C98.3981 398.668 87.9298 398.677 77.4616 398.695C72.1165 398.704 66.7714 398.71 61.4263 398.708C56.5393 398.706 51.6524 398.713 46.7654 398.727C44.9916 398.731 43.2178 398.731 41.444 398.728C39.0443 398.723 36.6449 398.731 34.2452 398.743C33.5467 398.739 32.8483 398.735 32.1286 398.73C28.5168 398.762 27.0997 398.934 24 401Z" fill="#F17C1A"/>
<path d="M441.684 113.031C454.006 123.385 460.879 137.137 463 153C464.488 170.906 458.72 186.921 447.258 200.648C435.827 212.554 420.054 218.831 403.688 219.438C385.541 218.954 369.82 211.413 357.313 198.375C345.691 184.39 342.719 167.64 344 150C345.994 134.212 355.295 121.278 367.25 111.25C389.909 94.4933 419.642 96.3474 441.684 113.031ZM376 124C375.113 124.578 374.226 125.155 373.313 125.75C363.934 134.876 358.947 146.099 358.688 159.063C358.659 172.009 363.569 182.245 372.188 191.688C380.414 199.48 391.658 203.943 402.938 204.375C415.681 203.872 427.503 199.107 436.375 189.813C444.819 179.486 449.262 167.319 448 154C445.745 140.945 439.377 130.042 428.617 122.281C411.332 111.227 392.669 112.858 376 124Z" fill="#F17C1A"/>
<path d="M255 222C257.375 223.562 257.375 223.562 259 226C259.625 232.274 257.858 237.289 255.809 243.109C255.472 244.093 255.135 245.077 254.788 246.091C253.682 249.314 252.56 252.532 251.438 255.75C250.666 257.988 249.895 260.225 249.124 262.464C247.148 268.195 245.159 273.923 243.166 279.649C241.687 283.901 240.216 288.156 238.744 292.411C237.084 297.213 235.418 302.013 233.75 306.812C233.443 307.697 233.136 308.582 232.819 309.494C231.148 314.301 229.461 319.102 227.749 323.894C227.257 325.276 226.771 326.661 226.29 328.048C225.65 329.895 224.99 331.735 224.328 333.574C223.972 334.584 223.615 335.595 223.247 336.635C221.806 339.369 220.915 340.075 218 341C214.965 340.814 212.778 340.44 210.125 338.937C207.957 335.204 208.592 330.713 209.562 326.647C210.378 324.005 211.269 321.4 212.192 318.793C212.529 317.81 212.865 316.828 213.213 315.815C214.318 312.602 215.44 309.395 216.563 306.187C217.334 303.956 218.105 301.724 218.874 299.492C220.848 293.774 222.838 288.062 224.832 282.351C226.32 278.083 227.801 273.812 229.282 269.542C232.685 259.728 236.088 249.914 239.553 240.122C240.451 237.583 241.317 235.041 242.162 232.484C242.494 231.498 242.826 230.512 243.168 229.496C243.433 228.682 243.697 227.868 243.97 227.029C246.382 222.28 249.927 221.26 255 222Z" fill="#F17C1A"/>
<path d="M280 242C282.363 244.152 282.363 244.152 285 247C285.932 247.982 286.864 248.964 287.797 249.945C293.45 256.009 298.91 262.152 304.09 268.629C305.677 270.599 307.315 272.489 309 274.375C311.093 277.122 312 278.552 312 282C309.677 286.75 306.146 290.128 302.433 293.797C301.799 294.431 301.164 295.065 300.51 295.719C299.174 297.052 297.835 298.383 296.493 299.712C294.436 301.752 292.386 303.799 290.338 305.848C289.037 307.144 287.735 308.439 286.433 309.734C285.512 310.655 285.512 310.655 284.571 311.593C279.243 316.862 279.243 316.862 274.625 317.375C271 317 271 317 268.5 314.937C266.51 311.04 266.939 309.216 268 305C269.738 302.75 271.306 300.986 273.347 299.066C273.879 298.544 274.41 298.021 274.957 297.482C276.645 295.828 278.353 294.195 280.062 292.562C281.215 291.44 282.367 290.315 283.517 289.189C286.329 286.443 289.159 283.717 292 281C290.382 277.592 288.522 275.205 285.937 272.437C281.071 267.131 276.482 261.634 272 256C271.429 255.296 270.858 254.592 270.269 253.867C268.397 251.113 268.526 249.249 269 246C271.938 241.535 274.872 241.19 280 242Z" fill="#F17C1A"/>
<path d="M194 242C196.312 243.125 196.312 243.125 198 245C198.938 247.875 198.938 247.875 199 251C197.002 254.931 194.383 257.926 191.375 261.125C185.553 267.425 179.766 273.851 175 281C175.443 281.412 175.886 281.825 176.342 282.25C199.829 304.148 199.829 304.148 200.312 309.375C200 313 200 313 198.375 315.438C196 317 196 317 193.25 317.688C184.708 315.881 176.916 305.234 170.77 299.175C169.625 298.052 168.474 296.935 167.317 295.825C165.625 294.2 163.954 292.556 162.285 290.906C161.51 290.173 161.51 290.173 160.72 289.425C157.141 285.826 156.114 283.05 156 278C157.52 275.297 157.52 275.297 159.812 272.75C160.644 271.806 161.475 270.863 162.332 269.891C163.653 268.46 163.653 268.46 165 267C165.829 266.087 166.658 265.175 167.512 264.234C169.171 262.411 170.836 260.593 172.508 258.781C175.825 255.079 178.917 251.216 181.992 247.312C185.738 242.998 188.162 241.27 194 242Z" fill="#F17C1A"/>
<path d="M238.125 410.566C238.909 410.561 239.693 410.556 240.5 410.551C242.155 410.544 243.809 410.545 245.463 410.554C247.992 410.562 250.518 410.534 253.047 410.502C254.656 410.5 256.266 410.501 257.875 410.504C259.006 410.487 259.006 410.487 260.161 410.47C263.635 410.516 265.638 410.735 268.477 412.812C270.71 416.02 270.545 418.187 270 422C268.474 424.183 268.474 424.183 266 426C263.171 426.41 260.738 426.585 257.91 426.566C256.738 426.576 256.738 426.576 255.542 426.585C253.892 426.592 252.242 426.589 250.592 426.576C248.074 426.563 245.559 426.597 243.041 426.635C241.435 426.636 239.829 426.634 238.223 426.629C237.474 426.642 236.724 426.655 235.953 426.669C231.998 426.599 230.16 426.123 226.99 423.687C225 421 225 421 224.938 417.375C227.096 410.52 231.623 410.541 238.125 410.566Z" fill="#F17C1A"/>
<path d="M52 411C54.4375 412.563 54.4375 412.563 56 415C56.5629 418.94 56.604 421.058 54.4375 424.438C51.0328 426.62 48.9657 426.637 45 426C42.5 423.938 42.5 423.938 41 421C41.0602 417.507 41.3634 415.096 43.125 412.063C46.1845 410.329 48.5682 410.579 52 411Z" fill="#F17C1A"/>
<path d="M115 411C117.313 412.125 117.313 412.125 119 414C120.204 417.691 120.344 419.296 118.625 422.812C117 425 117 425 116 426C112.537 426.261 109.825 426.317 106.563 425.062C104.345 422.135 104.442 419.699 104.617 416.098C105 414 105 414 106.625 411.937C109.668 410.736 111.752 410.594 115 411Z" fill="#F17C1A"/>
<path d="M83.9999 411C86.4374 412.563 86.4374 412.563 87.9999 415C88.5628 418.94 88.6039 421.058 86.4374 424.438C83.0577 426.604 80.9401 426.563 76.9999 426C74.5624 424.438 74.5624 424.438 72.9999 422C72.437 418.06 72.3959 415.942 74.5624 412.563C77.9421 410.396 80.0597 410.437 83.9999 411Z" fill="#F17C1A"/>
</svg>
